<?xml version="1.0" standalone="no"?>
<svg viewBox="0 0 200 200" xmlns="http://www.w3.org/2000/svg">
  <path fill="#FFFFFF" d="M37,-67.9C44.8,-59.7,45.5,-43.2,54.6,-30.5C63.8,-17.8,81.3,-8.9,81.8,0.3C82.3,9.5,65.7,18.9,55.9,30.4C46.1,42,43,55.6,34.8,65.4C26.6,75.3,13.3,81.5,-0.4,82.2C-14.2,83,-28.4,78.3,-42.4,71.9C-56.5,65.4,-70.5,57.1,-75.6,44.8C-80.6,32.5,-76.6,16.3,-72.4,2.5C-68.1,-11.4,-63.6,-22.7,-59.5,-36.6C-55.3,-50.4,-51.6,-66.7,-41.8,-73.6C-31.9,-80.6,-16,-78.3,-0.6,-77.1C14.7,-76,29.3,-76.1,37,-67.9Z" transform="translate(100 100)" />
</svg>
