<?xml version="1.0" encoding="UTF-8"?>
<svg id="Layer_2" data-name="Layer 2" xmlns="http://www.w3.org/2000/svg" viewBox="0 0 575 721">
  <defs>
    <style>
      .cls-1 {
        fill: #fff;
      }

      .cls-2 {
        fill: #2b2b2b;
      }

      .cls-3 {
        fill: #121212;
      }
    </style>
  </defs>
  <g id="Layer_1-2" data-name="Layer 1">
    <polygon class="cls-3" points="575 540.75 287.5 721 0 540.75 0 180.25 287.5 0 575 180.25 575 540.75"/>
  </g>
  <g id="Layer_2-2" data-name="Layer 2">
    <g>
      <path class="cls-1" d="m209.62,204.26c-56.02-34.36-77,7.54-78.42,6.72-8.96-5.23-28.9-.82-29.87,14.94-1.49,23.9,17.18,26.89,20.17,28.38,2.09,1.05.75,4.18.75,5.23-51.53,44.81-47.8,118.75-29.13,173.27,35.55,103.74,156.69,166.7,268.87,130.7,120.99-38.84,177.31-181.56,128.46-287.55-61.24-132.94-196.43-133.69-237.51-124.73-17.1,3.73-9.63,29.35,4.48,26.89,115.77-20.17,185.22,56.02,207.63,110.54,22.41,54.52,15.76,100.3,3.14,134.74-34.43,93.81-111.58,113.45-125.55,116.96-88.88,22.41-138.17-12.7-150.87-38.84-6.42-13.22,7.24-14.41,13.44-14.19,2.32.07,10.61,23.75,21.66,17.18,27.63-16.43,54.15-50.04,59.75-65.72,3.73-10.46-8.81-13.52-10.46-11.95-17.92,17.18-34.06,43.09-53.77,32.86-15.24-7.92,10.46-51.53,15.68-75.43.97-4.48,0-7.47,0-7.47,0,0-6.12,2.17-8.96.75-7.47-3.73-19.34-8.59-26.89-10.46-5.97-1.49-38.84,29.13-38.84,29.13,0,0-3.73-9.86,5.23-45.56-5.97-2.76-11.95-5.45-17.92-8.22,1.27-1.49,5.45-3.66,3.73-4.48,30.62,14.94,55.57,31.22,76.18,32.86,16.58,1.34,36.6-10.46,53.03-9.71,5.3.22,14.19,18.75,19.42,20.91,12.7,5.23,16.66-4.11,17.18-10.46.75-8.96-15.68-30.1-32.12-32.12-30.62-3.73-45.26,6.35-52.28,2.99-24.65-11.95-42.42-26.81-52.28-32.86.97-1.72,2.02-3.51,2.99-5.23,3.29-1.34,14.19-3.73,14.19-3.73,5.97,4.48,24.65,15.68,38.84.75,6.27-6.65,10.46-15.68-5.23-30.62-.75-1.49,24.65-32.86-24.72-66.47h0Z"/>
      <path class="cls-2" d="m182.73,240.86s-1.49-17.92-17.92-22.41c-37.34-11.95-47.5,42.95-19.42,70.21,24.65,23.9,85.14,6.72,73.19-34.36-11.2-23.9-35.85-13.44-35.85-13.44Z"/>
      <path class="cls-2" d="m123.8,227.41c-2.24-10.46-17.18-13.44-16.43,2.24.22,4.26,2.24,15.68,14.19,17.92l2.24-20.17Z"/>
      <path class="cls-2" d="m208.12,296.87c5-3.96,9.93-7.99,14.94-11.95,8.96-2.24,22.56,8.81,7.47,15.68-8.22,3.73-20.91,2.99-22.41-3.73Z"/>
      <path class="cls-1" d="m163.09,246.61c-2.02,3.29-5.75,4.93-9.11,3.81-4.11-1.34-6.2-6.12-4.71-10.68,1.49-4.56,6.05-7.24,10.08-5.9,2.02.67,3.58,2.17,4.48,4.11-1.72-.07-3.44,1.19-4.11,3.14-.75,2.32.3,4.71,2.39,5.38.3.07.67.15.97.15Z"/>
      <path class="cls-1" d="m201.92,269.01c-2.02,3.29-5.75,4.93-9.11,3.81-4.11-1.34-6.2-6.12-4.71-10.68s6.05-7.24,10.08-5.9c2.02.67,3.58,2.17,4.48,4.11-1.72-.07-3.44,1.19-4.11,3.14-.75,2.32.3,4.71,2.32,5.38.37.07.67.15,1.05.15h0Z"/>
      <ellipse class="cls-1" cx="162.62" cy="265.49" rx="1.49" ry="4.48" transform="translate(-59.89 47.73) rotate(-14.13)"/>
      <ellipse class="cls-1" cx="171.68" cy="270.82" rx="4.63" ry="1.57" transform="translate(-88.1 82.85) rotate(-21.74)"/>
    </g>
  </g>
</svg>