<?xml version="1.0" encoding="UTF-8"?>
<svg id="Layer_1" data-name="Layer 1" xmlns="http://www.w3.org/2000/svg" viewBox="0 0 572.45 569.99">
  <defs>
    <style>
      .cls-1 {
        fill: #fff;
      }

      .cls-2 {
        fill: #121212;
      }
    </style>
  </defs>
  <path class="cls-2" d="m172.95,75.33c-75-46-103.07,10.13-105,9-12-7-38.68-1.05-40,20-2,32,23,36,27,38,2.81,1.41.97,5.6,1,7C-13.05,209.33-8.05,308.33,16.95,381.33c47.56,138.86,209.84,223.2,360,175,162-52,237.38-243.07,172-385C466.95-6.67,285.95-7.67,230.95,4.33c-22.87,4.99-12.95,39.3,6,36,155-27,248,75,278,148s21.1,134.32,4.15,180.44c-46.15,125.56-149.42,151.84-168.15,156.56-119,30-185-17-202-52-8.58-17.67,9.7-19.34,18-19,3.1.13,14.16,31.82,29,23,37-22,72.5-67,80-88,5-14-11.76-18.14-14-16-24,23-45.62,57.72-72,44-20.35-10.58,14-69,21-101,1.31-5.97,0-10,0-10,0,0-8.16,2.92-12,1-10-5-25.87-11.47-36-14-8-2-52,39-52,39,0,0-4.97-13.25,7-61-8-3.67-16-7.33-24-11,1.67-2,7.34-4.86,5-6,41,20,74.43,41.76,102,44,22.16,1.8,49-14,71-13,7.06.32,18.96,25.1,26,28,17,7,22.29-5.51,23-14,1-12-21.03-40.32-43-43-41-5-60.61,8.55-70,4-33-16-56.82-35.86-70-44,1.33-2.33,2.67-4.67,4-7,4.39-1.8,19-5,19-5,8,6,33,21,52,1,8.41-8.85,14-21-7-41-1-2,33-44-33-89Z"/>
  <path class="cls-1" d="m136.95,124.33s-2-24-24-30c-50-16-63.62,57.52-26,94,33,32,114,9,98-46-15-32-48-18-48-18Z"/>
  <path class="cls-1" d="m57.95,106.33c-3-14-23-18-22,3,.27,5.69,3,21,19,24l3-27Z"/>
  <path class="cls-1" d="m170.95,199.33c6.67-5.33,13.33-10.67,20-16,12-3,30.21,11.81,10,21-11,5-28,4-30-5Z"/>
  <path class="cls-2" d="m110.62,132.01c-2.67,4.37-7.67,6.6-12.25,5.11-5.48-1.78-8.3-8.2-6.31-14.34,1.99-6.14,8.05-9.67,13.53-7.89,2.74.89,4.82,2.94,5.96,5.54-2.34-.07-4.62,1.59-5.46,4.18-1,3.07.41,6.28,3.15,7.17.45.15.91.22,1.38.23Z"/>
  <path class="cls-2" d="m162.62,162.01c-2.67,4.37-7.67,6.6-12.25,5.11-5.48-1.78-8.3-8.2-6.31-14.34,1.99-6.14,8.05-9.67,13.53-7.89,2.74.89,4.82,2.94,5.96,5.54-2.34-.07-4.62,1.59-5.46,4.18-1,3.07.41,6.28,3.15,7.17.45.15.91.22,1.38.23Z"/>
  <ellipse class="cls-2" cx="109.95" cy="157.33" rx="2" ry="6" transform="translate(-35.08 31.6) rotate(-14.13)"/>
  <ellipse class="cls-2" cx="122.13" cy="164.38" rx="6.16" ry="2.11" transform="translate(-52.21 56.94) rotate(-21.74)"/>
</svg>